<svg width="32" height="32" viewBox="0 0 32 32" fill="none" xmlns="http://www.w3.org/2000/svg">
  <rect width="32" height="32" rx="8" fill="black"/>
  <path d="M20 8H18V16C18 17.1 17.1 18 16 18C14.9 18 14 17.1 14 16C14 14.9 14.9 14 16 14C16.6 14 17.1 14.2 17.5 14.6V12.4C17.1 12.2 16.6 12 16 12C13.8 12 12 13.8 12 16C12 18.2 13.8 20 16 20C18.2 20 20 18.2 20 16V8Z" fill="white"/>
  <path d="M22 12H20V16C20 17.1 19.1 18 18 18C16.9 18 16 17.1 16 16C16 14.9 16.9 14 18 14C18.6 14 19.1 14.2 19.5 14.6V12.4C19.1 12.2 18.6 12 18 12C15.8 12 14 13.8 14 16C14 18.2 15.8 20 18 20C20.2 20 22 18.2 22 16V12Z" fill="white"/>
</svg> 